<svg xmlns="http://www.w3.org/2000/svg" xmlns:xlink="http://www.w3.org/1999/xlink">
<symbol id="twitter" preserveAspectRatio="xMidYMid meet" viewBox="0 0 24 24"><path fill="currentColor" d="M23.643 4.937c-.835.37-1.732.62-2.675.733a4.67 4.67 0 0 0 2.048-2.578a9.3 9.3 0 0 1-2.958 1.13a4.66 4.66 0 0 0-7.938 4.25a13.229 13.229 0 0 1-9.602-4.868c-.4.69-.63 1.49-.63 2.342A4.66 4.66 0 0 0 3.96 9.824a4.647 4.647 0 0 1-2.11-.583v.06a4.66 4.66 0 0 0 3.737 4.568a4.692 4.692 0 0 1-2.104.08a4.661 4.661 0 0 0 4.352 3.234a9.348 9.348 0 0 1-5.786 1.995a9.5 9.5 0 0 1-1.112-.065a13.175 13.175 0 0 0 7.14 2.093c8.57 0 13.255-7.098 13.255-13.254c0-.2-.005-.402-.014-.602a9.47 9.47 0 0 0 2.323-2.41l.002-.003Z"/></symbol>
<symbol id="bluesky" preserveAspectRatio="xMidYMid meet" viewBox="0 0 568 501"><path d="M123.121 33.6637C188.241 82.5526 258.281 181.681 284 234.873C309.719 181.681 379.759 82.5526 444.879 33.6637C491.866 -1.61183 568 -28.9064 568 57.9464C568 75.2916 558.055 203.659 552.222 224.501C531.947 296.954 458.067 315.434 392.347 304.249C507.222 323.8 536.444 388.56 473.333 453.32C353.473 576.312 301.061 422.461 287.631 383.039C285.169 375.812 284.017 372.431 284 375.306C283.983 372.431 282.831 375.812 280.369 383.039C266.939 422.461 214.527 576.312 94.6667 453.32C31.5556 388.56 60.7778 323.8 175.653 304.249C109.933 315.434 36.0535 296.954 15.7778 224.501C9.94525 203.659 0 75.2916 0 57.9464C0 -28.9064 76.1345 -1.61183 123.121 33.6637Z"/></symbol>
<symbol id="github" preserveAspectRatio="xMidYMid meet" viewBox="0 0 24 24"><path fill="currentColor" fill-rule="evenodd" d="M12 0C5.37 0 0 5.37 0 12c0 5.31 3.435 9.795 8.205 11.385c.6.105.825-.255.825-.57c0-.285-.015-1.23-.015-2.235c-3.015.555-3.795-.735-4.035-1.41c-.135-.345-.72-1.41-1.23-1.695c-.42-.225-1.02-.78-.015-.795c.945-.015 1.62.87 1.845 1.23c1.08 1.815 2.805 1.305 3.495.99c.105-.78.42-1.305.765-1.605c-2.67-.3-5.46-1.335-5.46-5.925c0-1.305.465-2.385 1.23-3.225c-.12-.3-.54-1.53.12-3.18c0 0 1.005-.315 3.3 1.23c.96-.27 1.98-.405 3-.405s2.04.135 3 .405c2.295-1.56 3.3-1.23 3.3-1.23c.66 1.65.24 2.88.12 3.18c.765.84 1.23 1.905 1.23 3.225c0 4.605-2.805 5.625-5.475 5.925c.435.375.81 1.095.81 2.22c0 1.605-.015 2.895-.015 3.3c0 .315.225.69.825.57A12.02 12.02 0 0 0 24 12c0-6.63-5.37-12-12-12Z" clip-rule="evenodd"/></symbol>
<symbol id="windows" viewBox="0 0 1024 1024"><path fill="currentColor" d="M523.8 191.4v288.9h382V128.1zm0 642.2l382 62.2v-352h-382zM120.1 480.2H443V201.9l-322.9 53.5zm0 290.4L443 823.2V543.8H120.1z"/></symbol>
<symbol id="apple" viewBox="0 0 1024 1024"><path fill="currentColor" d="M747.4 535.7c-.4-68.2 30.5-119.6 92.9-157.5c-34.9-50-87.7-77.5-157.3-82.8c-65.9-5.2-138 38.4-164.4 38.4c-27.9 0-91.7-36.6-141.9-36.6C273.1 298.8 163 379.8 163 544.6c0 48.7 8.9 99 26.7 150.8c23.8 68.2 109.6 235.3 199.1 232.6c46.8-1.1 79.9-33.2 140.8-33.2c59.1 0 89.7 33.2 141.9 33.2c90.3-1.3 167.9-153.2 190.5-221.6c-121.1-57.1-114.6-167.2-114.6-170.7zm-105.1-305c50.7-60.2 46.1-115 44.6-134.7c-44.8 2.6-96.6 30.5-126.1 64.8c-32.5 36.8-51.6 82.3-47.5 133.6c48.4 3.7 92.6-21.2 129-63.7z"/></symbol>
<symbol id="linux" viewBox="0 0 24 24"><path fill="currentColor" d="M14.62 8.35c-.42.28-1.75 1.04-1.95 1.19c-.39.31-.75.29-1.14-.01c-.2-.16-1.53-.92-1.95-1.19c-.48-.31-.45-.7.08-.92c1.64-.69 3.28-.64 4.91.03c.49.21.51.6.05.9m7.22 7.28c-.93-2.09-2.2-3.99-3.84-5.66a4.31 4.31 0 0 1-1.06-1.88c-.1-.33-.17-.67-.24-1.01c-.2-.88-.29-1.78-.7-2.61c-.73-1.58-2-2.4-3.84-2.47c-1.81.05-3.16.81-3.95 2.4c-.21.43-.36.88-.46 1.34c-.17.76-.32 1.55-.5 2.32c-.15.65-.45 1.21-.96 1.71c-1.61 1.57-2.9 3.37-3.88 5.35c-.14.29-.28.58-.37.88c-.19.66.29 1.12.99.96c.44-.09.88-.18 1.3-.31c.41-.15.57-.05.67.35c.65 2.15 2.07 3.66 4.24 4.5c4.12 1.56 8.93-.66 9.97-4.58c.07-.27.17-.37.47-.27c.46.14.93.24 1.4.35c.49.09.85-.16.92-.64c.03-.26-.06-.49-.16-.73"/></symbol>
<symbol id="book" viewBox="0 0 20 20"><path fill="currentColor" d="M16 3h2v16H5c-1.66 0-3-1.34-3-3V4c0-1.66 1.34-3 3-3h9v14H5c-.55 0-1 .45-1 1s.45 1 1 1h11V3z"/></symbol>
</svg>